<svg xmlns="http://www.w3.org/2000/svg" width="212" height="212" viewBox="0 0 512 512" version="1.1">
	<path d="M 172.364 1.493 C 147.658 6.867, 126.607 25.253, 117.925 49.043 C 108.087 75.999, 114.278 105.393, 134.186 126.249 C 137.659 129.887, 169.750 160.433, 205.500 194.129 C 241.250 227.824, 270.500 255.671, 270.500 256.010 C 270.500 256.349, 240.350 285.047, 203.500 319.783 C 166.650 354.519, 133.945 385.909, 130.821 389.538 C 124.276 397.144, 117.959 409.413, 115.396 419.500 C 113.035 428.789, 112.989 446.148, 115.303 455 C 117.613 463.837, 124.948 478.420, 130.142 484.500 C 140.468 496.590, 154.512 505.738, 168.500 509.487 C 188.582 514.870, 212.016 511.062, 229.266 499.612 C 238.073 493.766, 436.052 306.288, 440.778 299.318 C 450.699 284.688, 454.374 272.977, 454.374 256 C 454.374 239.024, 450.698 227.312, 440.781 212.686 C 436.081 205.754, 237.964 18.162, 229.201 12.345 C 213.185 1.715, 190.906 -2.539, 172.364 1.493 M 180.817 22.180 C 154.964 25.261, 135 48.058, 135 74.500 C 135 86.519, 139.271 99.087, 146.195 107.442 C 147.992 109.610, 182.095 142.210, 221.981 179.886 C 261.866 217.563, 295.124 249.253, 295.886 250.308 C 296.649 251.364, 297.273 253.925, 297.273 256 C 297.273 258.075, 296.649 260.636, 295.886 261.692 C 295.124 262.747, 261.866 294.437, 221.981 332.114 C 182.095 369.790, 147.992 402.390, 146.195 404.558 C 136.594 416.143, 132.553 435.186, 136.489 450.297 C 141.389 469.108, 156.842 484.426, 175.500 488.965 C 181.673 490.467, 193.892 490.481, 200.528 488.994 C 208.606 487.183, 217.630 482.113, 225.284 475.085 C 247.384 454.788, 413.419 297.849, 418.236 292.702 C 437.992 271.594, 437.930 239.906, 418.092 219.050 C 413.231 213.940, 244.692 54.728, 225.287 36.915 C 212.141 24.848, 197.934 20.140, 180.817 22.180 M 1.762 511.707 C 3.006 511.946, 4.806 511.937, 5.762 511.687 C 6.718 511.437, 5.700 511.241, 3.500 511.252 C 1.300 511.263, 0.518 511.468, 1.762 511.707 M 12.750 511.737 C 15.638 511.939, 20.363 511.939, 23.250 511.737 C 26.138 511.535, 23.775 511.370, 18 511.370 C 12.225 511.370, 9.863 511.535, 12.750 511.737 " stroke="none" fill="white" fill-rule="evenodd"/>
</svg>
