
<svg version="1.0" xmlns="http://www.w3.org/2000/svg"
 width="212" height="212" viewBox="0 0 512 512"
 preserveAspectRatio="xMidYMid meet">

<g transform="translate(0.000000,512.000000) scale(0.100000,-0.100000)"
fill="white" stroke="none">
<path d="M3370 5104 c-98 -21 -175 -53 -254 -104 -109 -72 -2078 -1937 -2133
-2021 -88 -134 -126 -260 -126 -419 0 -159 38 -286 126 -419 55 -83 2025
-1950 2130 -2018 138 -90 286 -130 447 -120 202 13 361 88 499 233 139 146
203 307 204 509 1 173 -47 317 -151 452 -26 34 -355 353 -732 709 -377 355
-685 650 -685 654 0 4 299 290 665 634 366 345 684 648 708 674 146 160 220
384 193 586 -6 46 -19 108 -27 137 -59 200 -231 388 -430 472 -128 54 -300 70
-434 41z m315 -225 c74 -22 165 -80 221 -140 178 -188 194 -481 38 -685 -21
-28 -366 -359 -766 -737 -400 -378 -732 -696 -738 -706 -13 -25 -13 -77 0
-102 6 -10 338 -328 737 -706 399 -377 738 -700 753 -717 169 -194 159 -512
-24 -705 -170 -180 -458 -219 -664 -88 -72 45 -2038 1903 -2080 1965 -18 27
-45 78 -60 113 -24 58 -27 76 -27 189 0 113 3 131 27 189 15 35 42 86 60 113
42 62 2008 1920 2079 1965 129 81 290 100 444 52z"/>
</g>
</svg>
