<svg xmlns="http://www.w3.org/2000/svg" width="512" height="512" viewBox="0 0 512 512" version="1.1"><path d="" stroke="none" fill="#0824fc" fill-rule="evenodd"/><path d="M 13.530 71.594 C 5.086 74.685, 0 82.357, -0 92 C -0 101.988, 5.828 110.134, 14.922 112.859 C 20.382 114.494, 491.618 114.494, 497.078 112.859 C 502.229 111.315, 507.299 106.949, 510.417 101.370 C 512.448 97.736, 513 95.373, 513 90.315 C 513 86.777, 512.602 84.128, 512.116 84.428 C 511.630 84.729, 510.700 83.689, 510.049 82.119 C 508.309 77.918, 503.100 73.299, 498.121 71.543 C 494.225 70.168, 467.771 70.008, 255.624 70.070 C 49.960 70.131, 16.959 70.339, 13.530 71.594 M 0.336 92 C 0.336 96.125, 0.513 97.813, 0.728 95.750 C 0.944 93.688, 0.944 90.313, 0.728 88.250 C 0.513 86.188, 0.336 87.875, 0.336 92 M 10.919 236.321 C 8.488 237.604, 5.150 240.570, 3.500 242.913 C 0.748 246.820, 0.500 247.860, 0.500 255.500 C 0.500 263.140, 0.748 264.180, 3.500 268.087 C 5.150 270.430, 8.488 273.396, 10.919 274.679 L 15.337 277.012 257.083 276.756 L 498.828 276.500 503.075 273.500 C 509.300 269.103, 512.850 262.111, 512.934 254.083 C 512.970 250.554, 512.725 247.942, 512.388 248.279 C 512.051 248.615, 510.779 247.003, 509.561 244.695 C 508.343 242.388, 505.430 239.150, 503.087 237.500 L 498.828 234.500 257.083 234.244 L 15.337 233.988 10.919 236.321 M 0.328 255.500 C 0.333 259.350, 0.513 260.802, 0.730 258.728 C 0.946 256.653, 0.943 253.503, 0.722 251.728 C 0.501 249.952, 0.324 251.650, 0.328 255.500 M 14.728 398.327 C 5.576 401.174, -0 409, 0 419 C 0 428.905, 6.069 437.537, 14.723 439.940 C 20.010 441.408, 491.990 441.408, 497.277 439.940 C 502.126 438.593, 507.211 434.106, 510.446 428.318 C 512.446 424.739, 513 422.354, 513 417.315 C 513 413.777, 512.602 411.128, 512.116 411.428 C 511.630 411.729, 510.668 410.612, 509.978 408.947 C 508.206 404.669, 501.661 399.404, 496.499 398.104 C 490.036 396.477, 19.977 396.694, 14.728 398.327 M 0.336 419 C 0.336 423.125, 0.513 424.813, 0.728 422.750 C 0.944 420.688, 0.944 417.313, 0.728 415.250 C 0.513 413.188, 0.336 414.875, 0.336 419" stroke="none" fill="#0424fc" fill-rule="evenodd"/></svg>