<svg xmlns="http://www.w3.org/2000/svg" width="450" height="150" viewBox="0 0 450 150" version="1.1"><path d="" stroke="none" fill="#0824fc" fill-rule="evenodd"/><path d="M 13.329 12.518 L 9 17.035 9 74.383 C 9 131.609, 9.005 131.736, 11.157 134.473 C 12.344 135.981, 15.111 138.517, 17.307 140.108 L 21.300 143 75.400 142.984 L 129.500 142.967 133.405 140.734 C 135.553 139.505, 138.703 136.771, 140.405 134.658 L 143.500 130.816 143.775 75.788 L 144.050 20.761 141.623 16.630 C 140.288 14.359, 137.820 11.487, 136.138 10.250 L 133.081 8 75.369 8 L 17.657 8 13.329 12.518 M 23.450 14.407 C 19.431 16.157, 15.224 21.264, 14.494 25.279 C 14.172 27.051, 14.041 50.405, 14.204 77.178 C 14.493 124.766, 14.547 125.918, 16.592 128.678 C 17.743 130.230, 20.172 132.512, 21.990 133.750 L 25.296 136 76 136 L 126.704 136 130.048 133.747 C 131.887 132.507, 134.316 129.920, 135.446 127.997 C 137.444 124.595, 137.500 123.137, 137.500 74.500 L 137.500 24.500 135.149 20.719 C 133.856 18.639, 131.062 16.052, 128.939 14.969 C 125.251 13.088, 122.889 13.002, 75.790 13.039 C 37.074 13.070, 25.846 13.363, 23.450 14.407 M 22.400 21.400 L 19 24.800 19 73.950 C 19 128.308, 18.886 127.294, 25.357 130.365 C 28.395 131.807, 34.407 132, 76.253 132 L 123.704 132 127.088 129.720 C 128.948 128.466, 131.033 126.328, 131.721 124.970 C 132.668 123.098, 132.974 110.928, 132.985 74.700 C 132.998 34.228, 132.771 26.458, 131.506 24.011 C 128.281 17.775, 130.374 18, 75.677 18 L 25.800 18 22.400 21.400 M 30 74.440 L 30 124 58.928 124 C 104.974 124, 111.821 122.181, 119.145 108 C 122.436 101.628, 122.462 90.100, 119.198 84.820 C 115.871 79.437, 110.504 75.127, 105.444 73.774 C 103 73.120, 101 72.093, 101 71.492 C 101 70.891, 102.982 69.436, 105.403 68.259 C 122.024 60.185, 119.864 34.321, 101.986 27.321 C 98.094 25.798, 93.032 25.520, 63.750 25.222 L 30 24.879 30 74.440 M 60.667 43.667 C 60.300 44.033, 60 49.023, 60 54.755 L 60 65.177 70.937 64.838 C 81.468 64.513, 81.988 64.391, 84.937 61.563 C 87.492 59.113, 88 57.856, 88 53.987 C 88 46.017, 82.740 43.072, 68.417 43.024 C 64.521 43.011, 61.033 43.300, 60.667 43.667 M 152 106.500 L 152 138 161 138 L 170 138 170 127.109 L 170 116.219 177.250 115.818 C 186.250 115.320, 191.336 112.962, 194.839 107.663 C 197.238 104.034, 197.500 102.729, 197.500 94.391 C 197.500 84.118, 196.399 81.598, 190.010 77.250 C 186.895 75.130, 185.701 75, 169.352 75 L 152 75 152 106.500 M 217.815 80.250 C 216.982 83.138, 212.633 97.062, 208.151 111.193 C 203.668 125.324, 200 137.136, 200 137.443 C 200 137.749, 203.992 138, 208.870 138 L 217.740 138 219 133.500 L 220.260 129 229.071 129 L 237.882 129 238.721 133.250 L 239.559 137.500 248.779 137.788 C 254.746 137.974, 258 137.704, 258 137.023 C 258 136.444, 253.725 122.461, 248.500 105.948 C 243.275 89.435, 239 75.717, 239 75.463 C 239 75.208, 234.574 75, 229.165 75 L 219.329 75 217.815 80.250 M 261.453 76.261 C 261.187 76.954, 261.089 91.017, 261.235 107.511 L 261.500 137.500 268.729 137.793 L 275.958 138.087 276.229 117.793 L 276.500 97.500 279.329 111 C 280.885 118.425, 282.834 127.537, 283.659 131.250 L 285.160 138 291.980 138 L 298.799 138 300.383 130.750 C 301.253 126.763, 303.055 118.550, 304.385 112.500 L 306.804 101.500 306.902 119.750 L 307 138 315 138 L 323 138 323 106.500 L 323 75 311.195 75 L 299.390 75 295.949 91.454 C 294.057 100.504, 292.241 107.591, 291.914 107.204 C 291.587 106.817, 289.810 99.412, 287.965 90.750 L 284.610 75 273.274 75 C 265.075 75, 261.803 75.349, 261.453 76.261 M 331 106.500 L 331 138 340 138 L 349 138 349 125.878 C 349 111.048, 349.778 111.171, 355.945 126.974 L 360.248 138 370.231 138 C 377.825 138, 380.091 137.701, 379.699 136.750 C 371.691 117.298, 369.156 112.156, 366.028 109.028 L 362.500 105.500 364.585 103.272 C 365.732 102.047, 367.220 99.208, 367.892 96.965 C 369.399 91.937, 372.204 89, 375.500 89 C 377.929 89, 378 88.800, 378 82 L 378 75 371.250 75.004 C 360.579 75.010, 357.454 77.652, 353.518 90 C 352.553 93.025, 351.142 96.159, 350.382 96.964 C 349.201 98.215, 349 96.723, 349 86.714 L 349 75 340 75 L 331 75 331 106.500 M 384 106.500 L 384 138 406.500 138 L 429 138 429 130.500 L 429 123 415.500 123 L 402 123 402 117.530 L 402 112.060 414.750 111.780 L 427.500 111.500 427.500 105 L 427.500 98.500 414.750 98.220 L 402 97.940 401.998 93.720 L 401.997 89.500 415.498 89.804 L 429 90.108 429 82.554 L 429 75 406.500 75 L 384 75 384 106.500 M 60 93 L 60 104.159 73.085 103.829 L 86.169 103.500 89.085 100.234 C 91.267 97.790, 92 95.970, 92 93 C 92 90.030, 91.267 88.210, 89.085 85.766 L 86.169 82.500 73.085 82.171 L 60 81.841 60 93 M 170 95 L 170 101 173.929 101 C 180.343 101, 182.996 96.295, 179.443 91.223 C 178.282 89.565, 176.885 89, 173.943 89 L 170 89 170 95 M 226.604 103.794 C 225.567 108.032, 224.551 111.954, 224.345 112.508 C 224.117 113.124, 225.730 113.377, 228.486 113.158 C 230.969 112.960, 233 112.374, 233 111.855 C 233 110.137, 229.736 97.513, 229.106 96.794 C 228.766 96.406, 227.640 99.556, 226.604 103.794" stroke="none" fill="#0424fc" fill-rule="evenodd"/></svg>