<svg xmlns="http://www.w3.org/2000/svg" width="200" height="200" viewBox="0 0 200 200" version="1.1"><path d="" stroke="none" fill="#0824fc" fill-rule="evenodd"/><path d="M 22.139 4.135 C 17.276 5.553, 11.543 9.422, 8.611 13.266 C 2.761 20.936, 3 17.222, 3 100.308 L 3 176.681 6.109 182.903 C 8.588 187.862, 10.345 189.873, 14.772 192.812 L 20.327 196.500 100 196.500 L 179.673 196.500 185.228 192.812 C 189.655 189.873, 191.412 187.862, 193.891 182.903 L 197 176.681 197 101.018 C 197 16.013, 197.292 19.564, 189.653 11.720 C 181.078 2.914, 187.472 3.523, 101.500 3.328 C 54.316 3.221, 24.226 3.527, 22.139 4.135 M 26.134 12.280 C 24.283 12.872, 20.607 15.461, 17.966 18.033 C 9.758 26.028, 10 23.539, 10 100 C 10 175.934, 9.785 173.649, 17.727 182.140 C 25.424 190.368, 22.402 190.094, 102.097 189.777 C 171.347 189.501, 171.509 189.495, 175.595 187.309 C 180.362 184.758, 185.664 179.049, 187.625 174.355 C 189.510 169.844, 189.667 32.957, 187.794 26.708 C 186.213 21.430, 178.570 13.787, 173.292 12.206 C 167.924 10.597, 31.182 10.666, 26.134 12.280 M 26.859 21.158 C 24.856 22.319, 22.268 24.957, 21.109 27.021 C 19.020 30.737, 19 31.425, 19 100.738 L 19 170.704 21.253 174.048 C 22.493 175.887, 25.080 178.316, 27.003 179.446 C 30.439 181.464, 31.696 181.500, 99.500 181.500 C 176.272 181.500, 172.969 181.787, 178.117 174.680 L 181 170.700 181 100.736 C 181 31.327, 180.983 30.742, 178.882 27.004 C 177.717 24.931, 175.069 22.283, 172.996 21.118 C 169.257 19.017, 168.683 19, 99.864 19.023 C 31.116 19.046, 30.468 19.065, 26.859 21.158 M 33 100 L 33 172 74.288 172 C 117.137 172, 133.170 170.954, 143.098 167.511 C 149.662 165.234, 158.442 157.030, 162.235 149.628 C 164.948 144.332, 165.432 142.210, 165.793 134 C 166.028 128.680, 165.719 122.671, 165.092 120.343 C 162.475 110.623, 152.234 100.679, 142 97.919 C 139.525 97.251, 137.123 96.372, 136.663 95.966 C 136.203 95.559, 138.300 94.094, 141.324 92.709 C 153.423 87.170, 159.539 77.105, 159.404 62.952 C 159.231 44.824, 147.240 32.354, 126.787 29.035 C 123.205 28.454, 101.678 28.012, 76.750 28.008 L 33 28 33 100 M 77 70.376 L 77 85 91.532 85 C 108.090 85, 111.797 84.021, 114.974 78.810 C 117.761 74.240, 117.730 66.198, 114.912 62.615 C 110.940 57.566, 107.711 56.671, 91.750 56.193 L 77 55.752 77 70.376 M 77 127.081 L 77 142.162 94.750 141.831 C 114.795 141.457, 117.074 140.771, 120.906 133.954 C 125.221 126.275, 122.509 117.495, 114.729 113.964 C 111.106 112.319, 108.101 112.041, 93.750 112.022 L 77 112 77 127.081" stroke="none" fill="#0424fc" fill-rule="evenodd"/></svg>