<svg xmlns="http://www.w3.org/2000/svg" width="512" height="512" viewBox="0 0 512 512" version="1.1"><path d="" stroke="none" fill="#0824fc" fill-rule="evenodd"/><path d="M 51.579 63.103 C 48.322 64.223, 43.761 66.444, 41.444 68.039 C 39.126 69.633, 35.982 72.414, 34.455 74.219 C 32.929 76.023, 30.292 80.425, 28.595 84 C 25.836 89.813, 25.516 91.451, 25.567 99.500 C 25.610 106.217, 26.160 109.846, 27.736 113.803 C 28.898 116.720, 31.319 121.022, 33.115 123.362 C 34.912 125.703, 38.297 129.088, 40.638 130.885 C 42.978 132.681, 47.280 135.130, 50.197 136.326 L 55.500 138.500 256 138.500 L 456.500 138.500 461.803 136.326 C 464.720 135.130, 469.022 132.681, 471.362 130.885 C 473.703 129.088, 477.088 125.703, 478.885 123.362 C 480.681 121.022, 483.102 116.720, 484.264 113.803 C 485.840 109.846, 486.390 106.217, 486.433 99.500 C 486.484 91.451, 486.164 89.813, 483.405 84 C 481.708 80.425, 479.071 76.023, 477.545 74.219 C 476.018 72.414, 472.872 69.632, 470.552 68.036 C 468.232 66.440, 463.573 64.204, 460.199 63.067 C 454.077 61.005, 453.601 61, 255.782 61.033 C 58.970 61.067, 57.456 61.082, 51.579 63.103 M 50.813 216.918 C 48.236 217.930, 44.543 219.738, 42.607 220.934 C 40.671 222.130, 37.067 225.356, 34.597 228.103 C 32.101 230.879, 29.171 235.600, 27.999 238.732 C 26.839 241.832, 25.635 247.098, 25.324 250.436 C 24.944 254.508, 25.302 258.630, 26.413 262.968 C 27.324 266.524, 29.436 271.562, 31.105 274.164 C 32.775 276.766, 35.968 280.545, 38.200 282.562 C 40.433 284.579, 44.789 287.415, 47.880 288.865 L 53.500 291.500 179 291.500 L 304.500 291.500 311 288.405 C 314.575 286.703, 319.482 283.328, 321.905 280.905 C 324.328 278.482, 327.703 273.575, 329.405 270 C 332.258 264.009, 332.500 262.678, 332.494 253 C 332.488 243.501, 332.217 241.947, 329.649 236.703 C 328.087 233.514, 324.625 228.721, 321.956 226.051 C 319.286 223.381, 314.491 219.915, 311.301 218.348 L 305.500 215.500 180.500 215.289 C 61.192 215.087, 55.287 215.161, 50.813 216.918 M 54.500 369.409 C 51.750 370.090, 47.545 371.658, 45.155 372.893 C 42.765 374.128, 38.793 377.154, 36.329 379.618 C 33.865 382.082, 30.420 387.114, 28.674 390.799 C 25.802 396.864, 25.500 398.402, 25.500 407 C 25.500 415.598, 25.802 417.136, 28.674 423.201 C 30.425 426.897, 33.923 431.975, 36.474 434.526 C 39.025 437.077, 44.103 440.575, 47.799 442.326 L 54.500 445.500 256 445.500 L 457.500 445.500 464.201 442.326 C 467.897 440.575, 472.975 437.077, 475.526 434.526 C 478.070 431.983, 481.478 427.067, 483.099 423.602 C 484.937 419.674, 486.276 414.849, 486.656 410.786 C 487.026 406.824, 486.767 402.159, 485.995 398.885 C 485.297 395.923, 483.635 391.323, 482.302 388.662 C 480.969 386.002, 477.920 381.867, 475.526 379.474 C 473.133 377.080, 468.998 374.026, 466.338 372.686 C 463.677 371.345, 459.115 369.743, 456.201 369.124 C 452.372 368.312, 396.587 368.024, 255.201 368.085 C 103.166 368.151, 58.384 368.447, 54.500 369.409" stroke="none" fill="#0424fc" fill-rule="evenodd"/></svg>