<svg xmlns="http://www.w3.org/2000/svg" xmlns:v="https://svgstorm.com"
viewBox = "0 0 512 512"
width="512"
height="512">
<g fill="None" fill-opacity="0.0" stroke="#000000" stroke-opacity="0.00" stroke-width="0.3"><path d="
M 0.00 512.00 
L 512.00 512.00
L 512.00 0.00
L 0.00 0.00
L 0.00 512.00
M 347.00 322.00 
C 359.39 333.40 371.27 345.87 383.25 357.75 C 395.23 369.64 407.93 382.42 419.75 394.25 C 431.57 406.07 444.82 419.22 456.25 430.75 C 467.68 442.29 491.05 458.61 474.75 474.75 C 458.46 490.90 442.82 468.15 431.25 456.75 C 419.68 445.35 406.61 432.08 394.75 420.25 C 382.89 408.42 370.20 395.79 358.25 383.75 C 346.30 371.72 333.44 359.42 322.00 347.00
C 251.12 405.70 141.39 397.39 78.75 329.25 C 16.12 261.11 18.42 149.94 84.25 84.25 C 150.08 18.55 260.20 15.99 328.75 78.25 C 397.29 140.52 405.95 251.14 347.00 322.00 Z"/>
</g>
<g fill="None" fill-opacity="0.0" stroke="#0026F9" stroke-opacity="1.00" stroke-width="0.3"><path d="
M 347.00 322.00 
C 405.95 251.14 397.29 140.52 328.75 78.25 C 260.20 15.99 150.08 18.55 84.25 84.25 C 18.42 149.94 16.12 261.11 78.75 329.25 C 141.39 397.39 251.12 405.70 322.00 347.00
C 333.44 359.42 346.30 371.72 358.25 383.75 C 370.20 395.79 382.89 408.42 394.75 420.25 C 406.61 432.08 419.68 445.35 431.25 456.75 C 442.82 468.15 458.46 490.90 474.75 474.75 C 491.05 458.61 467.68 442.29 456.25 430.75 C 444.82 419.22 431.57 406.07 419.75 394.25 C 407.93 382.42 395.23 369.64 383.25 357.75 C 371.27 345.87 359.39 333.40 347.00 322.00
M 223.00 69.00 
C 297.74 76.23 357.16 147.12 350.00 223.00 C 342.84 298.88 271.78 356.74 196.00 350.00 C 120.22 343.26 62.41 271.65 69.33 196.33 C 76.25 121.01 146.52 61.60 223.00 69.00 Z"/>
</g>
<g fill="None" fill-opacity="0.0" stroke="#000000" stroke-opacity="0.00" stroke-width="0.3"><path d="
M 223.00 69.00 
C 146.52 61.60 76.25 121.01 69.33 196.33 C 62.41 271.65 120.22 343.26 196.00 350.00 C 271.78 356.74 342.84 298.88 350.00 223.00 C 357.16 147.12 297.74 76.23 223.00 69.00 Z"/>
</g>
<g fill="#000000" fill-opacity="0.00" stroke="None">
<path d="
M 0.00 512.00 
L 512.00 512.00
L 512.00 0.00
L 0.00 0.00
L 0.00 512.00
M 347.00 322.00 
C 359.39 333.40 371.27 345.87 383.25 357.75 C 395.23 369.64 407.93 382.42 419.75 394.25 C 431.57 406.07 444.82 419.22 456.25 430.75 C 467.68 442.29 491.05 458.61 474.75 474.75 C 458.46 490.90 442.82 468.15 431.25 456.75 C 419.68 445.35 406.61 432.08 394.75 420.25 C 382.89 408.42 370.20 395.79 358.25 383.75 C 346.30 371.72 333.44 359.42 322.00 347.00
C 251.12 405.70 141.39 397.39 78.75 329.25 C 16.12 261.11 18.42 149.94 84.25 84.25 C 150.08 18.55 260.20 15.99 328.75 78.25 C 397.29 140.52 405.95 251.14 347.00 322.00 Z"/>
</g>
<g fill="#0026F9" fill-opacity="1.00" stroke="None">
<path d="
M 347.00 322.00 
C 405.95 251.14 397.29 140.52 328.75 78.25 C 260.20 15.99 150.08 18.55 84.25 84.25 C 18.42 149.94 16.12 261.11 78.75 329.25 C 141.39 397.39 251.12 405.70 322.00 347.00
C 333.44 359.42 346.30 371.72 358.25 383.75 C 370.20 395.79 382.89 408.42 394.75 420.25 C 406.61 432.08 419.68 445.35 431.25 456.75 C 442.82 468.15 458.46 490.90 474.75 474.75 C 491.05 458.61 467.68 442.29 456.25 430.75 C 444.82 419.22 431.57 406.07 419.75 394.25 C 407.93 382.42 395.23 369.64 383.25 357.75 C 371.27 345.87 359.39 333.40 347.00 322.00
M 223.00 69.00 
C 297.74 76.23 357.16 147.12 350.00 223.00 C 342.84 298.88 271.78 356.74 196.00 350.00 C 120.22 343.26 62.41 271.65 69.33 196.33 C 76.25 121.01 146.52 61.60 223.00 69.00 Z"/>
</g>
<g fill="#000000" fill-opacity="0.00" stroke="None">
<path d="
M 223.00 69.00 
C 146.52 61.60 76.25 121.01 69.33 196.33 C 62.41 271.65 120.22 343.26 196.00 350.00 C 271.78 356.74 342.84 298.88 350.00 223.00 C 357.16 147.12 297.74 76.23 223.00 69.00 Z"/>
</g>
</svg>