<svg xmlns="http://www.w3.org/2000/svg" width="512" height="512" viewBox="0 0 512 512" version="1.1"><path d="M 182.928 34.471 C 116.726 45.246, 62.714 90.577, 42.029 152.726 C 35.504 172.330, 33.894 181.870, 33.291 204.519 C 32.582 231.136, 35.111 247.940, 43.139 269.967 C 67.132 335.793, 127.203 381.044, 197.084 385.932 C 227.981 388.094, 258.847 382.250, 286.468 369.009 C 296.131 364.377, 312.356 354.362, 318.419 349.287 L 321.339 346.844 386.919 412.376 C 423.444 448.874, 453.747 478.372, 455.315 478.954 C 465.543 482.754, 478.319 475.500, 479.713 465.101 C 481.054 455.106, 484.683 459.324, 412.859 387.415 L 346.851 321.331 349.291 318.415 C 354.436 312.268, 364.408 296.065, 369.203 286.063 C 387.751 247.370, 391.503 201.536, 379.531 159.920 C 364.865 108.943, 325.500 65.387, 276.192 45.579 C 263.776 40.591, 257.821 38.777, 244.312 35.866 C 231.547 33.115, 196.196 32.312, 182.928 34.471 M 188 70.472 C 129.259 80.216, 83.918 123.944, 71.318 183 C 68.764 194.972, 68.764 224.028, 71.318 236 C 77.484 264.901, 89.999 288.114, 110.440 308.566 C 130.965 329.103, 154.195 341.633, 183 347.708 C 195.089 350.257, 225.072 350.208, 236.973 347.620 C 265.116 341.500, 288.235 328.885, 308.560 308.560 C 328.885 288.235, 341.500 265.116, 347.620 236.973 C 350.208 225.072, 350.257 195.089, 347.708 183 C 341.634 154.200, 329.107 130.975, 308.566 110.434 C 288.348 90.215, 265.257 77.658, 237 71.513 C 226.488 69.227, 199.020 68.643, 188 70.472" stroke="none" fill="#022AF5" fill-rule="evenodd"/><path d="" stroke="none" fill="#fcfcfc" fill-rule="evenodd"/></svg>
